<svg id="visual" viewBox="0 0 900 150" width="900" height="150" xmlns="http://www.w3.org/2000/svg" xmlns:xlink="http://www.w3.org/1999/xlink" version="1.1"><rect x="0" y="0" width="900" height="150" fill="#271F1F"></rect><path d="M0 44L16.7 47.7C33.3 51.3 66.7 58.7 100 64C133.3 69.3 166.7 72.7 200 71.5C233.3 70.3 266.7 64.7 300 62.7C333.3 60.7 366.7 62.3 400 59.5C433.3 56.7 466.7 49.3 500 48.8C533.3 48.3 566.7 54.7 600 58C633.3 61.3 666.7 61.7 700 62.8C733.3 64 766.7 66 800 63.2C833.3 60.3 866.7 52.7 883.3 48.8L900 45L900 151L883.3 151C866.7 151 833.3 151 800 151C766.7 151 733.3 151 700 151C666.7 151 633.3 151 600 151C566.7 151 533.3 151 500 151C466.7 151 433.3 151 400 151C366.7 151 333.3 151 300 151C266.7 151 233.3 151 200 151C166.7 151 133.3 151 100 151C66.7 151 33.3 151 16.7 151L0 151Z" fill="#dedcda"></path><path d="M0 62L16.7 66.3C33.3 70.7 66.7 79.3 100 81.5C133.3 83.7 166.7 79.3 200 78.3C233.3 77.3 266.7 79.7 300 80.7C333.3 81.7 366.7 81.3 400 82.5C433.3 83.7 466.7 86.3 500 84.7C533.3 83 566.7 77 600 73.2C633.3 69.3 666.7 67.7 700 68.8C733.3 70 766.7 74 800 73.2C833.3 72.3 866.7 66.7 883.3 63.8L900 61L900 151L883.3 151C866.7 151 833.3 151 800 151C766.7 151 733.3 151 700 151C666.7 151 633.3 151 600 151C566.7 151 533.3 151 500 151C466.7 151 433.3 151 400 151C366.7 151 333.3 151 300 151C266.7 151 233.3 151 200 151C166.7 151 133.3 151 100 151C66.7 151 33.3 151 16.7 151L0 151Z" fill="#e7be9b"></path><path d="M0 98L16.7 96.2C33.3 94.3 66.7 90.7 100 88.3C133.3 86 166.7 85 200 85.7C233.3 86.3 266.7 88.7 300 90.8C333.3 93 366.7 95 400 95.3C433.3 95.7 466.7 94.3 500 94.7C533.3 95 566.7 97 600 97.3C633.3 97.7 666.7 96.3 700 97.2C733.3 98 766.7 101 800 101.8C833.3 102.7 866.7 101.3 883.3 100.7L900 100L900 151L883.3 151C866.7 151 833.3 151 800 151C766.7 151 733.3 151 700 151C666.7 151 633.3 151 600 151C566.7 151 533.3 151 500 151C466.7 151 433.3 151 400 151C366.7 151 333.3 151 300 151C266.7 151 233.3 151 200 151C166.7 151 133.3 151 100 151C66.7 151 33.3 151 16.7 151L0 151Z" fill="#ef9d63"></path><path d="M0 107L16.7 107.2C33.3 107.3 66.7 107.7 100 106.2C133.3 104.7 166.7 101.3 200 102.3C233.3 103.3 266.7 108.7 300 110.7C333.3 112.7 366.7 111.3 400 111.5C433.3 111.7 466.7 113.3 500 112.2C533.3 111 566.7 107 600 107C633.3 107 666.7 111 700 113.2C733.3 115.3 766.7 115.7 800 113C833.3 110.3 866.7 104.7 883.3 101.8L900 99L900 151L883.3 151C866.7 151 833.3 151 800 151C766.7 151 733.3 151 700 151C666.7 151 633.3 151 600 151C566.7 151 533.3 151 500 151C466.7 151 433.3 151 400 151C366.7 151 333.3 151 300 151C266.7 151 233.3 151 200 151C166.7 151 133.3 151 100 151C66.7 151 33.3 151 16.7 151L0 151Z" fill="#f67532"></path><path d="M0 130L16.7 128.2C33.3 126.3 66.7 122.7 100 121.3C133.3 120 166.7 121 200 122.8C233.3 124.7 266.7 127.3 300 128.7C333.3 130 366.7 130 400 129.2C433.3 128.3 466.7 126.7 500 125.2C533.3 123.7 566.7 122.3 600 121.2C633.3 120 666.7 119 700 120.3C733.3 121.7 766.7 125.3 800 127.5C833.3 129.7 866.7 130.3 883.3 130.7L900 131L900 151L883.3 151C866.7 151 833.3 151 800 151C766.7 151 733.3 151 700 151C666.7 151 633.3 151 600 151C566.7 151 533.3 151 500 151C466.7 151 433.3 151 400 151C366.7 151 333.3 151 300 151C266.7 151 233.3 151 200 151C166.7 151 133.3 151 100 151C66.7 151 33.3 151 16.7 151L0 151Z" fill="#fc3b00"></path></svg>